<svg xmlns="http://www.w3.org/2000/svg" viewBox="0 0 145.19 139.47"><defs><style>.cls-1{fill:#fb9701;}.cls-2{fill:#191943;}.cls-3{fill:#050301;}.cls-4{fill:#030200;}</style></defs><g id="Layer_2" data-name="Layer 2"><g id="Layer_1-2" data-name="Layer 1"><path class="cls-1" d="M105.33,115.08c.29.4.73.28,1.1.3,4.55.18,9.1.36,13.65.48.9,0,1.12.3,1.11,1.17q-.06,7.44,0,14.87c0,.87-.25,1-1.07,1-4.52,0-9,0-13.55,0a2.27,2.27,0,0,0-.4-.59c-2.07-1.57-4.12-3.17-6.25-4.65A1.45,1.45,0,0,0,97.63,129c-.07,1.31,0,2.63-.07,3.95h-.85c.05-.73-.23-1.08-1-1a4.24,4.24,0,0,1-1.18,0c-.8-.12-1,.25-1,1H90.71c-.13-.39.14-.95-.68-1-1.59-.08-1.58-.14-1.59-1.8,0-.32,0-.64,0-1-.11-1.61-1.35-2.23-2.68-1.29-1.49,1.07-3,2.19-4.41,3.3a6.5,6.5,0,0,0-1.94,1.75l-13.46,0c-.4,0-.89.22-1.18-.28,0-4.92.06-9.83,0-14.75,0-.95.29-1.22,1.2-1.25,3.12-.13,6.23-.31,9.33-.51a6.31,6.31,0,0,0,4.36-1.68,2.57,2.57,0,0,1,1.11.67c1.61,1.19,3.2,2.39,4.8,3.59a1.73,1.73,0,0,0,2,.32,1.65,1.65,0,0,0,.87-1.7c0-.6,0-1.2,0-1.79s.24-.9.84-.8c1.22.22,1.56-.34,1.38-1.44a4.4,4.4,0,0,1,0-1c0-.43-.12-.63-.59-.69-1.63-.2-1.62-.22-1.63-1.91a7.69,7.69,0,0,0,0-1,1.56,1.56,0,0,0-2.52-1.25c-.5.32-.94.75-1.44,1.07-1.13.72-2,1.82-3.33,2.25,0-4,.18-7.93,0-11.89,0-.24,0-.49,0-.74l0-2.65,4.51,3.33a1.66,1.66,0,0,0,1.89.22,1.6,1.6,0,0,0,.84-1.59,13.53,13.53,0,0,0,0-1.56c-.09-.84.13-1.33,1.08-1.15s1.25-.32,1.14-1.2a8,8,0,0,1,0-1.2c0-.4-.18-.63-.57-.56-1.7.34-1.78-.68-1.65-1.91,0-.24,0-.48,0-.72a1.72,1.72,0,0,0-.85-1.72,1.74,1.74,0,0,0-2,.32C84.15,88.93,82.67,90,81.2,91.1l-.09-3.41c0-.68.07-1.36.07-2q0-32.08,0-64.16c0-.32,0-.64,0-1,0-.52-.19-.69-.7-.69L65,19.92a3.65,3.65,0,0,0-3.41,2.55,8.33,8.33,0,0,0-.52,3.28q0,4.32,0,8.62c0,.71-.05,1.05-1,1Q51,34.65,42,34.11c-1.11-.06-1.38-.38-1.37-1.45,0-4.75,0-9.5,0-14.25,0-.47.06-.95.06-1.42q0-8.47,0-16.95Q51.44,0,62.24,0h81.33c1.85,0,1.59-.25,1.59,1.57,0,10.4,0,20.79,0,31.19,0,1-.22,1.26-1.22,1.32q-9.15.54-18.29,1.25c-.83.07-.93-.19-.92-.88,0-2.88,0-5.76,0-8.64a15.42,15.42,0,0,0-.18-2.26c-.39-2.49-1.31-3.55-3.82-3.62-4.91-.15-9.83-.07-14.75-.1-.46,0-.67.17-.64.64,0,.24,0,.48,0,.72q0,29.21,0,58.42c0,.44,0,.88.05,1.32q0,5.25-.08,10.5c-1.64-1.2-3.29-2.38-4.91-3.6a1.8,1.8,0,0,0-2-.37c-.76.37-.85,1.06-.85,1.82,0,2.67,0,5.35,0,8,0,.74,0,1.42.84,1.81a1.87,1.87,0,0,0,2.08-.41c1.6-1.18,3.21-2.34,4.82-3.52q0,5.72.08,11.42l-.09,4.74c-1.64-1.2-3.28-2.39-4.91-3.6a1.63,1.63,0,0,0-2.83,1.44q0,4,0,8c0,.74,0,1.42.84,1.81a1.82,1.82,0,0,0,2.07-.41Zm-10.21-.34c1.79,0,1.53.16,1.53-1.37,0-1.91.25-1.71-1.45-1.71-1.9,0-1.61-.23-1.62,1.51C93.56,114.74,93.57,114.74,95.12,114.74Zm.15-22.9c-1.7,0-1.63,0-1.72,1.4-.07,1.14.1,1.72,1.47,1.6,1.86-.15,1.52.19,1.66-1.54C96.8,91.94,96.28,91.58,95.27,91.84Z"/><path class="cls-2" d="M40.65,0q0,8.48,0,17c0,.47,0,1-.06,1.42a25.81,25.81,0,0,1-2.64,0c-.92-.09-1.11.25-1.11,1.13q0,17,0,33.92c0,.9.22,1.14,1.12,1.13,4.8,0,9.59,0,14.39,0a37.48,37.48,0,0,0,9.49-1.1c5.07-1.3,9.31-3.83,11.79-8.63a21.1,21.1,0,0,0,1.61-14.57A12.29,12.29,0,0,0,67.54,21L65,19.92l15.47-.07c.51,0,.74.17.7.69,0,.32,0,.64,0,1q0,32.09,0,64.16c0,.67,0,1.35-.07,2-.07-.23-.17-.45-.23-.68a16.72,16.72,0,0,0-7-10.23,26.33,26.33,0,0,0-14.5-4.29c-7.19-.18-14.39,0-21.59-.11-1,0-1,.41-1,1.14q0,19.73,0,39.45c0,1,.35,1.22,1.3,1.21,5.67,0,11.35,0,17,0A45.62,45.62,0,0,0,66.3,113c5.94-1.51,10.83-4.44,13.43-10.31.54-1.2.94-2.46,1.4-3.7h0c.2,4,0,7.93,0,11.89,0,.41-.41.55-.68.75a2.09,2.09,0,0,0-.78,2.85,6.31,6.31,0,0,1-4.36,1.68c-3.1.2-6.21.38-9.33.51-.91,0-1.2.3-1.2,1.25,0,4.92,0,9.83,0,14.75-10.83.58-21.67.22-32.5.28-10.35.06-20.71,0-31.06,0-.62,0-1.22.19-1.21-.89.06-4.8,0-9.6,0-14.4,0-.72.22-.95.94-1,2.26-.17,4.55-.3,6.78-.68,3.27-.56,4.73-2.44,4.73-5.75q0-45.7,0-91.41c0-1-.33-1.24-1.28-1.27-3.08-.09-6.14-.33-9.22-.44-.8,0-1-.31-1-1.06q0-7.5,0-15c0-.76.17-1,1-1Q21.34,0,40.65,0Z"/><path class="cls-3" d="M79.41,132.94a6.5,6.5,0,0,1,1.94-1.75c1.46-1.11,2.92-2.23,4.41-3.3,1.33-.94,2.57-.32,2.68,1.29,0,.32,0,.64,0,1,0,1.66,0,1.72,1.59,1.8.82,0,.55.59.68,1a2.87,2.87,0,0,0,0,.71c.2,1.15-.24,1.63-1.4,1.41-.72-.13-.89.23-.84.88a13.53,13.53,0,0,1,0,1.91,1.59,1.59,0,0,1-2.57,1.3c-2-1.43-4-3-5.94-4.44C79.31,134.23,79.4,133.58,79.41,132.94Z"/><path class="cls-4" d="M97.56,132.92c0-1.32,0-2.64.07-3.95a1.45,1.45,0,0,1,2.29-1.27c2.13,1.48,4.18,3.08,6.25,4.65a2.27,2.27,0,0,1,.4.59,2,2,0,0,1-1,2.11c-1.74,1.26-3.46,2.56-5.17,3.87a1.83,1.83,0,0,1-2,.35c-.82-.36-.84-1.06-.84-1.8C97.6,136,97.57,134.44,97.56,132.92Z"/><path class="cls-4" d="M105.33,115.08l-4.81,3.53a1.82,1.82,0,0,1-2.07.41c-.81-.39-.85-1.07-.84-1.81q0-4,0-8a1.63,1.63,0,0,1,2.83-1.44c1.63,1.21,3.27,2.4,4.91,3.6.64.61,1.43,1.08,1.23,2.22C106.43,114.38,105.7,114.55,105.33,115.08Z"/><path class="cls-2" d="M105.43,106.62l-.08-11.42c.31-.59,1.05-.84,1.19-1.58.22-1.1-.68-1.51-1.19-2.17q0-5.25.08-10.5A38.24,38.24,0,0,1,107.29,96,42.17,42.17,0,0,1,105.43,106.62Z"/><path class="cls-3" d="M93.53,132.92c-.06-.72.18-1.09,1-1a4.24,4.24,0,0,0,1.18,0c.79-.11,1.07.24,1,1-.16,2.13-.16,2.06-2,2.15-1,0-1.24-.33-1.13-1.2A5.06,5.06,0,0,0,93.53,132.92Z"/><path class="cls-3" d="M79.68,114.44a2.09,2.09,0,0,1,.78-2.85c.27-.2.64-.34.68-.75,1.33-.43,2.2-1.53,3.33-2.25.5-.32.94-.75,1.44-1.07a1.56,1.56,0,0,1,2.52,1.25,7.69,7.69,0,0,1,0,1c0,1.69,0,1.71,1.63,1.91.47.06.61.26.59.69a4.4,4.4,0,0,0,0,1c.18,1.1-.16,1.66-1.38,1.44-.6-.1-.88.16-.84.8s0,1.19,0,1.79a1.65,1.65,0,0,1-.87,1.7,1.73,1.73,0,0,1-2-.32c-1.6-1.2-3.19-2.4-4.8-3.59A2.57,2.57,0,0,0,79.68,114.44Z"/><path class="cls-3" d="M81.2,95.56c-2.39-1.7-2.55-2.62,0-4.46,1.47-1.09,3-2.17,4.41-3.28a1.74,1.74,0,0,1,2-.32,1.72,1.72,0,0,1,.85,1.72c0,.24,0,.48,0,.72-.13,1.23,0,2.25,1.65,1.91.39-.07.58.16.57.56a8,8,0,0,0,0,1.2c.11.88-.13,1.39-1.14,1.2s-1.17.31-1.08,1.15a13.53,13.53,0,0,1,0,1.56,1.6,1.6,0,0,1-.84,1.59,1.66,1.66,0,0,1-1.89-.22Z"/><path class="cls-4" d="M105.35,91.45c.51.66,1.41,1.07,1.19,2.17-.14.74-.88,1-1.19,1.58-1.61,1.18-3.22,2.34-4.82,3.52a1.87,1.87,0,0,1-2.08.41c-.82-.39-.84-1.07-.84-1.81,0-2.67,0-5.35,0-8,0-.76.09-1.45.85-1.82a1.8,1.8,0,0,1,2,.37C102.06,89.07,103.71,90.25,105.35,91.45Z"/><path class="cls-3" d="M95.12,114.74c-1.55,0-1.56,0-1.54-1.57,0-1.74-.28-1.51,1.62-1.51,1.7,0,1.45-.2,1.45,1.71C96.65,114.9,96.91,114.72,95.12,114.74Z"/><path class="cls-3" d="M95.27,91.84c1-.26,1.53.1,1.41,1.46-.14,1.73.2,1.39-1.66,1.54-1.37.12-1.54-.46-1.47-1.6C93.64,91.85,93.57,91.84,95.27,91.84Z"/><path class="cls-3" d="M81.13,99l0-.75c0,.25,0,.5,0,.74Z"/></g></g></svg>